<svg width="42" height="42" viewBox="0 0 42 42" fill="none" xmlns="http://www.w3.org/2000/svg">
    <path d="M39.375 32.69H9.31V39.375H39.375V32.69Z" stroke="#E7E7E7" stroke-miterlimit="10"/>
    <path d="M39.375 26.005H9.31V32.69H39.375V26.005Z" stroke="#E7E7E7" stroke-miterlimit="10"/>
    <path d="M10.9725 19.25H39.375V25.935H9.31V21C9.30944 20.5506 9.48175 20.1183 9.79125 19.7925C10.1007 19.4667 10.5237 19.2725 10.9725 19.25Z"
          stroke="#E7E7E7" stroke-miterlimit="10"/>
    <path d="M9.31 12.6525C7.53703 12.6525 5.83667 13.3568 4.58299 14.6105C3.32931 15.8642 2.625 17.5645 2.625 19.3375V39.375H9.31V21C9.33121 20.5659 9.51318 20.1553 9.82048 19.848C10.1278 19.5407 10.5384 19.3587 10.9725 19.3375H39.375V12.6525H9.31Z"
          stroke="#E7E7E7" stroke-miterlimit="10"/>
    <path d="M19.3375 8.645C19.3261 9.1828 19.2089 9.71309 18.9926 10.2056C18.7762 10.6981 18.4649 11.1431 18.0765 11.5153C17.6881 11.8874 17.2302 12.1794 16.7289 12.3745C16.2276 12.5697 15.6928 12.6641 15.155 12.6525C14.6172 12.6641 14.0824 12.5697 13.5811 12.3745C13.0798 12.1794 12.6219 11.8874 12.2335 11.5153C11.8451 11.1431 11.5338 10.6981 11.3175 10.2056C11.1011 9.71309 10.9839 9.1828 10.9725 8.645C10.9725 6.4225 12.845 2.625 15.155 2.625C17.465 2.625 19.3375 6.4225 19.3375 8.645Z"
          stroke="#E7E7E7" stroke-miterlimit="10"/>
    <path d="M27.685 8.645C27.6163 9.70524 27.1467 10.6996 26.3715 11.4262C25.5963 12.1528 24.5737 12.5571 23.5112 12.5571C22.4488 12.5571 21.4261 12.1528 20.651 11.4262C19.8758 10.6996 19.4062 9.70524 19.3375 8.645C19.3375 6.4225 21.1925 2.625 23.5025 2.625C25.8125 2.625 27.685 6.4225 27.685 8.645Z"
          stroke="#E7E7E7" stroke-miterlimit="10"/>
    <path d="M36.0325 8.645C35.9638 9.70524 35.4942 10.6996 34.719 11.4262C33.9438 12.1528 32.9212 12.5571 31.8587 12.5571C30.7963 12.5571 29.7736 12.1528 28.9985 11.4262C28.2233 10.6996 27.7537 9.70524 27.685 8.645C27.685 6.4225 29.5575 2.625 31.85 2.625C34.1425 2.625 36.0325 6.4225 36.0325 8.645Z"
          stroke="#E7E7E7" stroke-miterlimit="10"/>
</svg>
