<svg width="20" height="19" viewBox="0 0 20 19" fill="none" xmlns="http://www.w3.org/2000/svg">
    <path d="M14.4396 10.948C13.9892 10.7763 13.6895 10.3542 13.6759 9.87223C13.6194 7.85943 11.9656 6.20399 10.0646 6.25737C8.16362 6.31075 6.60533 8.05638 6.66185 10.0692C6.67538 10.5511 6.39978 10.9897 5.95971 11.1863C4.66584 11.7648 3.85537 13.0586 3.89535 14.4825C3.94965 16.4163 5.56725 17.9453 7.50087 17.891C7.98963 17.8773 8.46025 17.7651 8.90041 17.5574C9.82968 17.1186 10.9083 17.0876 11.8615 17.4744C12.3122 17.657 12.7884 17.7426 13.2772 17.7288C15.2108 17.6746 16.74 16.0572 16.6857 14.1233C16.6457 12.6992 15.7639 11.4527 14.4396 10.948Z"
          fill="black"/>
    <path d="M7.01413 0.56219C5.67401 0.59982 5.01696 2.9629 5.04386 3.92087C5.0758 5.05829 6.02732 5.95784 7.16474 5.9259C8.30216 5.89396 9.2017 4.94244 9.16977 3.80502C9.14287 2.84705 8.35424 0.524559 7.01413 0.56219Z"
          fill="black"/>
    <path d="M12.7905 0.400019C11.4504 0.437649 10.7933 2.80073 10.8202 3.7587C10.8522 4.89612 11.8037 5.79567 12.9411 5.76373C14.0785 5.73179 14.9781 4.78027 14.9461 3.64285C14.9192 2.68488 14.1306 0.362389 12.7905 0.400019Z"
          fill="black"/>
    <path d="M2.61471 5.64074C1.27464 5.67837 0.617543 8.04146 0.644443 8.99943C0.676382 10.1368 1.62791 11.0364 2.76532 11.0045C3.90274 10.9725 4.80229 10.021 4.77035 8.88357C4.74345 7.9256 3.95482 5.60311 2.61471 5.64074Z"
          fill="black"/>
    <path d="M17.4677 5.22363C16.1276 5.26126 15.4706 7.62434 15.4975 8.58227C15.5294 9.71969 16.4809 10.6192 17.6183 10.5873C18.7558 10.5554 19.6553 9.60384 19.6234 8.46642C19.5965 7.50849 18.8079 5.186 17.4677 5.22363Z"
          fill="black"/>
</svg>
