<svg width="25" height="25" viewBox="0 0 25 25" fill="none" xmlns="http://www.w3.org/2000/svg">
    <path d="M24.9354 5.48208C24.8228 4.9144 24.571 4.39492 24.2195 3.96577C24.1454 3.87227 24.068 3.78853 23.984 3.70479C23.3612 3.07891 22.4871 2.68848 21.5322 2.68848H3.46782C2.51289 2.68848 1.64189 3.07891 1.01616 3.70479C0.932422 3.78853 0.85498 3.87227 0.780664 3.96577C0.428955 4.39487 0.177246 4.9144 0.0676758 5.48208C0.0226563 5.70117 0 5.92759 0 6.15649V18.8437C0 19.3304 0.103223 19.7982 0.287305 20.2208C0.458057 20.6241 0.709814 20.989 1.01611 21.295C1.09375 21.3725 1.17085 21.4437 1.25498 21.5145C1.85488 22.0113 2.62925 22.3113 3.46782 22.3113H21.5322C22.371 22.3113 23.1488 22.0113 23.7452 21.5113C23.8291 21.4437 23.9066 21.3725 23.984 21.295C24.2902 20.989 24.5419 20.6241 24.7162 20.2208V20.2176C24.9002 19.7951 25 19.3304 25 18.8437V6.15649C25 5.92759 24.9777 5.70117 24.9354 5.48208ZM2.27095 4.95942C2.58076 4.64995 2.99683 4.4626 3.46782 4.4626H21.5322C22.0032 4.4626 22.4229 4.64995 22.7291 4.95942C22.7838 5.01455 22.8354 5.07598 22.881 5.13701L13.4129 13.3887C13.1518 13.6176 12.8292 13.7306 12.5 13.7306C12.1741 13.7306 11.8518 13.6176 11.5872 13.3887L2.12266 5.1335C2.16455 5.07246 2.21616 5.01455 2.27095 4.95942ZM1.77412 18.8437V6.96938L8.62588 12.9467L1.77759 18.9176C1.77412 18.895 1.77412 18.8695 1.77412 18.8437ZM21.5322 20.5369H3.46782C3.16113 20.5369 2.87417 20.4563 2.62925 20.3146L9.85474 14.0178L10.5293 14.6046C11.0938 15.0951 11.8002 15.3436 12.5 15.3436C13.2034 15.3436 13.9098 15.0951 14.4742 14.6046L15.1484 14.0178L22.3711 20.3146C22.1258 20.4563 21.8389 20.5369 21.5322 20.5369ZM23.2259 18.8437C23.2259 18.8695 23.2259 18.895 23.2226 18.9176L16.3743 12.9501L23.2259 6.97256V18.8437Z"
          fill="white"/>
</svg>
