<svg width="25" height="22" viewBox="0 0 25 22" fill="none" xmlns="http://www.w3.org/2000/svg"><path d="M23.4352 0.151151C23.4131 0.163034 23.3901 0.174178 23.3667 0.183215L1.16229 8.7653C-0.338535 9.31105 -0.338535 10.2661 0.889416 10.539L6.24071 12.2358C6.3932 12.2841 6.51335 12.4025 6.56393 12.5543L8.66644 18.8618C8.93932 19.544 8.80288 19.8169 9.48508 19.8169C10.0308 19.8169 10.3037 19.544 10.5766 19.2711C10.7028 19.1449 11.7628 18.0848 13.001 16.8467C13.1759 16.6718 13.4525 16.651 13.6516 16.7979L19.0011 20.7463C19.0242 20.7634 19.0491 20.7787 19.075 20.7912C20.1436 21.311 20.8128 21.0301 21.0824 19.8169L24.9027 1.94335C25.3072 0.459973 24.379 -0.356982 23.4352 0.151151ZM20.5366 4.26281L10.0382 13.8191C9.94569 13.9033 9.88811 14.0191 9.87679 14.1436L9.70148 16.072C9.65245 16.6114 8.90048 16.6987 8.7292 16.1848L7.42604 12.2754C7.35324 12.057 7.43898 11.8171 7.63373 11.6943L19.8544 3.98993C20.4002 3.58062 20.946 3.85349 20.5366 4.26281Z" fill="white"/></svg>
